<svg width="242" height="242" viewBox="0 0 242 242" fill="none" xmlns="http://www.w3.org/2000/svg">
<g clip-path="url(#clip0_602_38)">
<path d="M16.9763 75.3877C19.2434 88.779 13.434 171.257 -5.69436 187.997C-24.8227 204.736 -37.6884 219.789 -44.6596 242.018C-58.2649 285.403 -58.9733 345.128 -57.4118 372.127L50.2739 272H230.222L250.059 306.692C259.694 329.214 222.901 328.758 203.301 325.714C204.245 314.808 208.968 289.953 193.382 289.192C177.796 288.431 179.213 319.627 172.129 321.91C165.044 324.192 154.417 321.91 146.624 331.801C138.831 341.692 133.163 366.04 148.75 382.018C164.336 397.997 208.26 397.997 254.31 394.953C300.36 391.91 337.2 366.801 324.447 285.388C311.695 203.975 257.144 197.127 244.391 175.823C231.639 154.518 230.931 80.7139 234.473 66.2573C238.015 51.8008 249.351 27.4529 230.222 13.7572C211.094 0.0615835 191.257 28.2138 191.257 28.2138C191.257 28.2138 160.085 19.8442 128.204 19.8442C96.3236 19.8442 52.3992 28.2138 50.2739 28.2138C50.2739 28.2138 31.1455 -0.699315 9.89174 19.8442C-11.362 40.3877 14.1425 58.6486 16.9763 75.3877Z" fill="white"/>
<path d="M150.26 121.401C138.915 110.761 146.005 53.76 126.152 53C95.6617 53 110.552 107.721 95.6617 121.401C80.7713 135.082 76.5169 138.122 75.8079 157.122C75.0988 176.122 89.2801 186.763 123.315 188.283C157.35 189.803 170.114 179.922 171.532 159.402C172.95 138.882 161.605 132.041 150.26 121.401Z" stroke="black" stroke-width="12.1739"/>
<circle cx="62" cy="88" r="10" fill="black"/>
<circle cx="184" cy="90" r="10" fill="black"/>
<path d="M140.96 148.218C138.96 141.957 134.292 141.261 122.957 141.261C111.621 141.261 106.953 141.261 104.953 148.218C102.953 155.174 112.955 165.609 122.957 165.609C132.958 165.609 142.96 154.478 140.96 148.218Z" fill="black"/>
</g>
<defs>
<clipPath id="clip0_602_38">
<rect width="242" height="242" fill="white"/>
</clipPath>
</defs>
</svg>
