<svg width="240" height="240" viewBox="0 0 240 240" fill="none" xmlns="http://www.w3.org/2000/svg">
<rect width="240" height="240" rx="120" fill="white"/>
<path d="M146.26 120.401C134.915 109.761 142.005 52.76 122.152 52C91.6617 52 106.552 106.721 91.6617 120.401C76.7713 134.082 72.5169 137.122 71.8079 156.122C71.0988 175.122 85.2801 185.763 119.315 187.283C153.35 188.803 166.114 178.922 167.532 158.402C168.95 137.882 157.605 131.041 146.26 120.401Z" stroke="black" stroke-width="12.1739"/>
<circle cx="58" cy="87" r="10" fill="black"/>
<circle cx="180" cy="89" r="10" fill="black"/>
<path d="M136.96 147.218C134.96 140.957 130.292 140.261 118.957 140.261C107.621 140.261 102.953 140.261 100.953 147.218C98.9527 154.174 108.955 164.609 118.957 164.609C128.958 164.609 138.96 153.478 136.96 147.218Z" fill="black"/>
</svg>
