<svg width="242" height="242" viewBox="0 0 242 242" fill="none" xmlns="http://www.w3.org/2000/svg">
<g clip-path="url(#clip0_602_38)">
<path fill-rule="evenodd" clip-rule="evenodd" d="M-0.942097 182.129C14.3956 157.251 19.0435 87.5984 16.9763 75.3877C16.0923 70.1659 13.0021 64.7961 9.81346 59.255C2.7804 47.0335 -4.73189 33.9791 9.89174 19.8442C31.1455 -0.699315 50.2739 28.2138 50.2739 28.2138C50.71 28.2138 52.9064 27.8613 56.3978 27.301C69.9198 25.1311 102.866 19.8442 128.204 19.8442C160.085 19.8442 191.257 28.2138 191.257 28.2138C191.257 28.2138 211.094 0.0615837 230.222 13.7572C246.458 25.3818 240.747 44.6805 236.482 59.0914C235.723 61.6589 235.009 64.0712 234.473 66.2573C231.131 79.8971 231.573 146.368 242.344 171.729C219.458 213.392 172.148 242 117.5 242C67.5283 242 23.6936 218.079 -0.942097 182.129Z" fill="white"/>
<path d="M150.26 121.401C138.915 110.761 146.005 53.76 126.152 53C95.6617 53 110.552 107.721 95.6617 121.401C80.7713 135.082 76.5169 138.122 75.8079 157.122C75.0988 176.122 89.2801 186.763 123.315 188.283C157.35 189.803 170.114 179.922 171.532 159.402C172.95 138.882 161.605 132.041 150.26 121.401Z" stroke="black" stroke-width="12.1739"/>
<circle cx="62" cy="88" r="10" fill="black"/>
<circle cx="184" cy="90" r="10" fill="black"/>
<path d="M140.96 148.218C138.96 141.957 134.292 141.261 122.957 141.261C111.621 141.261 106.953 141.261 104.953 148.218C102.953 155.174 112.955 165.609 122.957 165.609C132.958 165.609 142.96 154.478 140.96 148.218Z" fill="black"/>
</g>
<defs>
<clipPath id="clip0_602_38">
<rect width="242" height="242" fill="white"/>
</clipPath>
</defs>
</svg>
